<svg width="39" height="39" viewBox="0 0 39 39" fill="none" xmlns="http://www.w3.org/2000/svg">
<path d="M17.7721 34.5C17.1103 34.5 16.5407 34.275 16.0632 33.825C15.5858 33.375 15.2975 32.825 15.1985 32.175L14.8676 29.7C14.549 29.575 14.249 29.425 13.9676 29.25C13.6863 29.075 13.4103 28.8875 13.1397 28.6875L10.8603 29.6625C10.2475 29.9375 9.6348 29.9625 9.02206 29.7375C8.40931 29.5125 7.93137 29.1125 7.58824 28.5375L5.86029 25.4625C5.51716 24.8875 5.41912 24.275 5.56618 23.625C5.71324 22.975 6.04412 22.4375 6.55882 22.0125L8.50735 20.5125C8.48284 20.3375 8.47059 20.1685 8.47059 20.0055V18.993C8.47059 18.831 8.48284 18.6625 8.50735 18.4875L6.55882 16.9875C6.04412 16.5625 5.71324 16.025 5.56618 15.375C5.41912 14.725 5.51716 14.1125 5.86029 13.5375L7.58824 10.4625C7.93137 9.8875 8.40931 9.4875 9.02206 9.2625C9.6348 9.0375 10.2475 9.0625 10.8603 9.3375L13.1397 10.3125C13.4093 10.1125 13.6912 9.925 13.9853 9.75C14.2794 9.575 14.5735 9.425 14.8676 9.3L15.1985 6.825C15.2966 6.175 15.5848 5.625 16.0632 5.175C16.5417 4.725 17.1113 4.5 17.7721 4.5H21.2279C21.8897 4.5 22.4598 4.725 22.9382 5.175C23.4167 5.625 23.7044 6.175 23.8015 6.825L24.1324 9.3C24.451 9.425 24.7515 9.575 25.0338 9.75C25.3162 9.925 25.5917 10.1125 25.8603 10.3125L28.1397 9.3375C28.7524 9.0625 29.3652 9.0375 29.9779 9.2625C30.5907 9.4875 31.0686 9.8875 31.4118 10.4625L33.1397 13.5375C33.4828 14.1125 33.5809 14.725 33.4338 15.375C33.2868 16.025 32.9559 16.5625 32.4412 16.9875L30.4926 18.4875C30.5172 18.6625 30.5294 18.8315 30.5294 18.9945V20.0055C30.5294 20.1685 30.5049 20.3375 30.4559 20.5125L32.4044 22.0125C32.9191 22.4375 33.25 22.975 33.3971 23.625C33.5441 24.275 33.4461 24.8875 33.1029 25.4625L31.3382 28.5375C30.9951 29.1125 30.5172 29.5125 29.9044 29.7375C29.2917 29.9625 28.6789 29.9375 28.0662 29.6625L25.8603 28.6875C25.5907 28.8875 25.3088 29.075 25.0147 29.25C24.7206 29.425 24.4265 29.575 24.1324 29.7L23.8015 32.175C23.7034 32.825 23.4157 33.375 22.9382 33.825C22.4608 34.275 21.8907 34.5 21.2279 34.5H17.7721ZM19.5735 24.75C20.9951 24.75 22.2083 24.2375 23.2132 23.2125C24.2181 22.1875 24.7206 20.95 24.7206 19.5C24.7206 18.05 24.2181 16.8125 23.2132 15.7875C22.2083 14.7625 20.9951 14.25 19.5735 14.25C18.1274 14.25 16.9078 14.7625 15.9147 15.7875C14.9216 16.8125 14.4255 18.05 14.4265 19.5C14.4275 20.95 14.924 22.1875 15.9162 23.2125C16.9083 24.2375 18.1274 24.75 19.5735 24.75Z" fill="#848484"/>
</svg>
